<svg width="68" height="68" viewBox="0 0 68 68" fill="none" xmlns="http://www.w3.org/2000/svg">
<g filter="url(#filter0_d_166612_3108)">
<path d="M34 0C17.5 0 4 13.5241 4 30.1807C4 45.241 14.98 57.741 29.32 60V38.9157H21.7V30.1807H29.32V23.5241C29.32 15.9639 33.79 11.8072 40.66 11.8072C43.93 11.8072 47.3499 12.3795 47.3499 12.3795V19.8193H43.5699C39.85 19.8193 38.68 22.1386 38.68 24.5181V30.1807H47.0199L45.6699 38.9157H38.68V60C45.7493 58.8791 52.1866 55.2576 56.8297 49.7893C61.4729 44.3211 64.016 37.3664 63.9999 30.1807C63.9999 13.5241 50.4999 0 34 0Z" fill="#7C7C7C"/>
<path d="M21.2 38.9157V39.4157H21.7H28.82V59.4091C15.0054 56.9477 4.5 44.7903 4.5 30.1807C4.5 13.798 17.7783 0.5 34 0.5C50.2216 0.5 63.4999 13.798 63.4999 30.1807V30.1818C63.5157 37.2488 61.0146 44.0883 56.4486 49.4657C52.0095 54.6936 45.9033 58.2046 39.18 59.4086V39.4157H45.6699H46.0986L46.1641 38.992L47.5141 30.2571L47.6032 29.6807H47.0199H39.18V24.5181C39.18 23.4014 39.4553 22.3594 40.1084 21.6031C40.7497 20.8605 41.8193 20.3193 43.57 20.3193H47.3499H47.8499V19.8193V12.3795V11.9562L47.4325 11.8864L47.3499 12.3795C47.4325 11.8864 47.4324 11.8864 47.4324 11.8864L47.4322 11.8863L47.4315 11.8862L47.4294 11.8859L47.4213 11.8845L47.3908 11.8795C47.3783 11.8775 47.3631 11.8751 47.3453 11.8722C47.3249 11.869 47.3011 11.8652 47.274 11.861C47.1722 11.845 47.0239 11.8224 46.8359 11.7952C46.46 11.741 45.9252 11.6688 45.2874 11.5965C44.014 11.4524 42.321 11.3072 40.66 11.3072C37.1241 11.3072 34.15 12.3788 32.0595 14.4777C29.9686 16.5769 28.82 19.6452 28.82 23.5241V29.6807H21.7H21.2V30.1807V38.9157Z" stroke="black"/>
</g>
<defs>
<filter id="filter0_d_166612_3108" x="0" y="0" width="68" height="68" filterUnits="userSpaceOnUse" color-interpolation-filters="sRGB">
<feFlood flood-opacity="0" result="BackgroundImageFix"/>
<feColorMatrix in="SourceAlpha" type="matrix" values="0 0 0 0 0 0 0 0 0 0 0 0 0 0 0 0 0 0 127 0" result="hardAlpha"/>
<feOffset dy="4"/>
<feGaussianBlur stdDeviation="2"/>
<feComposite in2="hardAlpha" operator="out"/>
<feColorMatrix type="matrix" values="0 0 0 0 0 0 0 0 0 0 0 0 0 0 0 0 0 0 0.25 0"/>
<feBlend mode="normal" in2="BackgroundImageFix" result="effect1_dropShadow_166612_3108"/>
<feBlend mode="normal" in="SourceGraphic" in2="effect1_dropShadow_166612_3108" result="shape"/>
</filter>
</defs>
</svg>
